<svg width="121" height="33" viewBox="0 0 121 33" fill="none" xmlns="http://www.w3.org/2000/svg">
<path d="M21.0426 25V9.99277C21.0426 9.64578 21.0426 9.31325 21.0426 8.99518C21.0426 8.64819 21.1005 7.17349 21.2161 4.57108C20.3776 7.72289 19.7559 9.92048 19.3511 11.1639L14.8836 25H11.1969L6.72939 11.1639L4.86433 4.57108C5.0089 7.28916 5.08119 9.09639 5.08119 9.99277V25H0.483603V0.233735H7.42336L11.8475 14.0699L12.2378 15.4145L13.0619 18.7542L14.1896 14.7639L18.7438 0.233735H25.6402V25H21.0426ZM33.0309 32.4602C31.8454 32.4602 30.8044 32.388 29.908 32.2434V28.7301C30.5153 28.8169 31.0791 28.8602 31.5996 28.8602C32.2936 28.8602 32.8719 28.7446 33.3345 28.5133C33.8261 28.3108 34.2454 27.9494 34.5924 27.4289C34.9683 26.9084 35.3875 26.041 35.8502 24.8265L28.3032 5.95903H33.5514L36.5442 14.894C37.0068 16.1663 37.5996 18.1181 38.3225 20.7494L38.7562 19.1012L39.8839 14.9807L42.7032 5.95903H47.8647L40.361 25.9976C39.349 28.4265 38.2936 30.1036 37.1948 31.0289C36.1249 31.9831 34.7369 32.4602 33.0309 32.4602ZM50.4758 25V0.233735H55.6372V21.0096H68.9095V25H50.4758ZM94.4904 12.4217C94.4904 14.9663 93.9844 17.1928 92.9723 19.1012C91.9603 21.0096 90.529 22.4699 88.6784 23.4819C86.8567 24.494 84.7747 25 82.4326 25H72.4133V0.233735H81.3482C85.5121 0.233735 88.7362 1.28916 91.0205 3.4C93.3338 5.48193 94.4904 8.48916 94.4904 12.4217ZM89.2422 12.4217C89.2422 9.76145 88.5482 7.73735 87.1603 6.3494C85.8012 4.93253 83.835 4.2241 81.2615 4.2241H77.5747V21.0096H81.9555C84.182 21.0096 85.9458 20.2434 87.247 18.7108C88.5771 17.1494 89.2422 15.053 89.2422 12.4217ZM120.341 17.9301C120.341 20.1855 119.488 21.9349 117.782 23.1783C116.105 24.3928 113.762 25 110.755 25H98.3938V0.233735H109.714C112.75 0.233735 115.035 0.768675 116.567 1.83855C118.129 2.87952 118.909 4.41205 118.909 6.43614C118.909 7.85301 118.519 9.05301 117.738 10.0361C116.958 10.9904 115.772 11.641 114.182 11.988C116.177 12.2193 117.695 12.8554 118.736 13.8964C119.806 14.9084 120.341 16.253 120.341 17.9301ZM113.705 7.17349C113.705 6.04578 113.343 5.2506 112.62 4.78795C111.897 4.3253 110.842 4.09397 109.454 4.09397H103.555V10.2096H109.497C110.972 10.2096 112.042 9.96386 112.707 9.47229C113.372 8.95181 113.705 8.18554 113.705 7.17349ZM115.136 17.5398C115.136 15.2265 113.473 14.0699 110.148 14.0699H103.555V21.1398H110.321C111.999 21.1398 113.213 20.8506 113.965 20.2723C114.746 19.6651 115.136 18.7542 115.136 17.5398Z" fill="white"/>
</svg>
